Jump_normalized_Motion_pl06
version=1
nRows=8
nColumns=43
inDegrees=yes
endheader
time		pelvis_tilt		pelvis_list		pelvis_rotation		pelvis_tx		pelvis_ty		pelvis_tz		hip_flexion_r		hip_adduction_r		hip_rotation_r		knee_angle_r		ankle_angle_r		subtalar_angle_r		mtp_angle_r		hip_flexion_l		hip_adduction_l		hip_rotation_l		knee_angle_l		ankle_angle_l		subtalar_angle_l		mtp_angle_l		lumbar_extension		lumbar_bending		lumbar_rotation		neck_flexion		neck_lateral_bending		neck_rotation		arm_flex_r		arm_add_r		arm_rot_r		elbow_flex_r		pro_sup_r		wrist_flex_r		wrist_dev_r		hand_finger_flex_r		arm_flex_l		arm_add_l		arm_rot_l		elbow_flex_l		pro_sup_l		wrist_flex_l		wrist_dev_l		hand_finger_flex_l		
0.322500		-2.425952		-9.022184		93.530186		0.001719		1.764212		1.881918		74.277070		-9.631259		12.014908		-134.704171		28.730132		-6.328246		1.701157		74.479208		0.931558		8.654686		-133.362653		32.081785		-4.682311		7.748299		-57.318354		0.339702		-2.210996		33.880017		0.857486		-3.389863		79.204644		-21.935116		23.530191		58.857448		67.194795		-39.730923		9.384707		43.879324		79.634154		-13.975153		16.604185		68.460124		106.338864		-21.457478		16.701879		77.404564		
0.325404		-2.417247		-9.151534		93.567879		0.001407		1.763756		1.880601		74.323329		-9.717095		12.040683		-134.823338		28.660640		-6.254370		1.705559		74.521234		1.005299		8.649630		-133.490959		32.031562		-4.681843		7.872820		-57.208721		0.361059		-2.238331		33.899670		0.986473		-3.404705		80.545695		-21.896519		24.245766		58.912728		67.072174		-39.387468		9.338034		43.902419		80.911770		-13.886967		17.385220		68.378925		106.315957		-21.409474		16.652027		77.443916		
0.328308		-2.413883		-9.329687		93.575947		0.001170		1.763534		1.879250		74.372635		-9.791618		12.044206		-134.845959		28.650534		-6.185653		1.720517		74.554982		1.059820		8.652908		-133.556889		32.037353		-4.695876		7.970269		-57.083087		0.369298		-2.280127		34.064287		1.030708		-3.402028		81.804011		-21.636427		24.581555		58.954422		66.948398		-39.158852		9.257952		43.899057		82.122518		-13.670276		17.818026		68.267103		106.229161		-21.421166		16.594304		77.434208		
0.331212		-2.408610		-9.487283		93.593347		0.000921		1.763329		1.877864		74.379854		-9.869139		12.066582		-134.872272		28.644989		-6.099249		1.742435		74.572192		1.103889		8.654817		-133.610306		32.040893		-4.709265		8.077629		-56.970057		0.384886		-2.332653		34.149390		1.102380		-3.402733		83.084000		-21.392437		24.974934		58.981994		66.810728		-38.868186		9.190273		43.905459		83.360413		-13.507407		18.346686		68.167132		106.095054		-21.411200		16.520599		77.419860		
0.334116		-2.403148		-9.670385		93.604210		0.000710		1.763175		1.876406		74.377743		-9.930404		12.096065		-134.851470		28.651048		-6.020599		1.764128		74.595966		1.119830		8.661519		-133.625747		32.058990		-4.720281		8.166479		-56.835178		0.394748		-2.387451		34.218580		1.151481		-3.402125		84.301692		-21.102509		25.240543		59.057788		66.699794		-38.620634		9.118168		43.905506		84.544690		-13.311698		18.742779		68.094528		105.960954		-21.408469		16.443632		77.391251		
0.337020		-2.441364		-9.648101		93.612167		0.000439		1.763407		1.874853		74.145576		-10.015501		12.167453		-134.869006		28.706461		-5.825049		1.865597		74.362336		1.153480		8.597727		-133.658477		32.050267		-4.747406		8.529702		-56.921384		0.404660		-2.493131		34.262495		1.195518		-3.366668		85.704246		-20.884702		25.817220		58.992262		66.104182		-37.986609		8.835152		43.811094		85.859449		-13.305156		19.457601		67.987702		105.066884		-21.581979		16.180342		77.312053		
0.339924		-2.427590		-9.867670		93.610348		0.000233		1.763295		1.873360		74.190698		-10.055635		12.192360		-134.849751		28.697830		-5.749695		1.897967		74.413467		1.155381		8.596631		-133.683614		32.079447		-4.771169		8.658890		-56.749869		0.410041		-2.513296		34.370942		1.229571		-3.359407		86.904000		-20.561726		25.982325		59.039666		65.967987		-37.805027		8.721160		43.734150		87.054886		-13.065715		19.843522		67.880850		104.889307		-21.606561		16.082118		77.255624		
0.342828		-2.389438		-10.103477		93.596404		-0.000026		1.763018		1.871905		74.290793		-10.058284		12.195045		-134.895961		28.643522		-5.677968		1.913185		74.515114		1.149133		8.596973		-133.749276		32.088417		-4.776603		8.738449		-56.542401		0.402990		-2.519061		34.485241		1.301580		-3.370674		88.153175		-20.321138		26.288034		59.077456		65.935136		-37.611752		8.701663		43.684698		88.317493		-12.861275		20.376858		67.729128		104.881646		-21.512031		16.008134		77.204601		
